<?xml version="1.0" standalone="no"?><!DOCTYPE svg PUBLIC "-//W3C//DTD SVG 1.1//EN" "http://www.w3.org/Graphics/SVG/1.1/DTD/svg11.dtd"><svg t="1688379861871" class="icon" viewBox="0 0 1024 1024" version="1.1" xmlns="http://www.w3.org/2000/svg" p-id="15139" xmlns:xlink="http://www.w3.org/1999/xlink" width="200" height="200"><path d="M529.664 213.333333H896a42.666667 42.666667 0 0 1 42.666667 42.666667v597.333333a42.666667 42.666667 0 0 1-42.666667 42.666667H128a42.666667 42.666667 0 0 1-42.666667-42.666667V170.666667a42.666667 42.666667 0 0 1 42.666667-42.666667h316.330667l85.333333 85.333333zM170.666667 213.333333v597.333334h682.666666V298.666667h-358.997333l-85.333333-85.333334H170.666667z m469.333333 341.333334h42.666667v170.666666H341.333333v-170.666666h42.666667v-42.666667a128 128 0 1 1 256 0v42.666667z m-85.333333 0v-42.666667a42.666667 42.666667 0 0 0-85.333334 0v42.666667h85.333334z" p-id="15140" fill="#d81e06"></path></svg>