<?xml version="1.0" standalone="no"?><!DOCTYPE svg PUBLIC "-//W3C//DTD SVG 1.1//EN" "http://www.w3.org/Graphics/SVG/1.1/DTD/svg11.dtd"><svg t="1688537883238" class="icon" viewBox="0 0 1024 1024" version="1.1" xmlns="http://www.w3.org/2000/svg" p-id="2263" xmlns:xlink="http://www.w3.org/1999/xlink" width="200" height="200"><path d="M 847.8 685.9 c -10.3 1.4 -19.1 3.5 -27.8 6.6 l -56 23.9 c -2.2 0.9 -4.6 1.4 -7 1.4 c -3.8 0 -7.4 -1.3 -10.6 -3.5 c -5.1 -3.8 -7.6 -10 -6.8 -16.3 c 0.3 -2.5 0.5 -5.2 0.5 -7.9 c 0 -84.9 -190.8 -87.7 -192.7 -87.7 c -13.1 0 -31.6 -5.8 -58.2 -14.7 c -25.3 -8.4 -53.6 -17.9 -80.3 -20.2 l -10.7 -0.9 c -13.1 -1.3 -28.6 -2.5 -44.6 -3.8 c -9.2 -0.6 -16.1 -8.4 -16.1 -17.5 V 320.7 c 0 -4.6 1.9 -9.2 5.1 -12.3 L 552.8 97.8 c 3.3 -3.3 7.7 -5.2 12.3 -5.2 h 280.3 c 9.6 0 17.5 7.9 17.5 17.5 v 558.3 c -0.1 9 -6.4 16.4 -15.1 17.5 Z M 547.6 152.5 L 397.1 303.2 H 530 c 9.6 0 17.5 -7.9 17.5 -17.5 l 0.1 -133.2 Z M 302.2 534 c -7.9 91.2 -68.3 311.9 -70.8 319.8 c -2.4 7.3 -9 12.2 -16.6 12.2 H 109.7 c -9.6 0 -17.5 -7.9 -17.5 -17.5 v -351 c 0 -4.9 2.1 -9.5 5.5 -12.8 s 8.2 -4.7 13.1 -4.7 c 36 2.2 156.2 11.4 186.2 39.8 c 3.6 3.6 5.7 8.8 5.2 14.2 Z m 420.5 367.2 c -146.1 59.9 -193.3 26.2 -262.7 0 l -185.7 -84.1 c 16.6 -53.4 48.8 -162.8 59.9 -238.2 c 27 1.7 53.9 4.3 73.2 6.2 c 48.8 4.4 106.1 35.1 140.2 35.1 c 34.1 0 175.2 12.3 175.2 70.2 c 0 57.9 -130.3 41.7 -210.2 35.1 c -13.9 -1.1 -21.5 -0.9 -24.5 0.3 c -14.2 5.8 76.7 35.1 94.5 34.8 c 18 -0.3 88.7 1.9 122.7 0.3 L 828 708.4 c 56.8 -19.8 105 10.4 105 52.6 c 0 50.9 -210.3 140.2 -210.3 140.2 Z" fill="#13227a" p-id="2264"></path></svg>